<svg id="Group_2" data-name="Group 2" xmlns="http://www.w3.org/2000/svg" xmlns:xlink="http://www.w3.org/1999/xlink" width="186.82" height="49.862" viewBox="0 0 186.82 49.862">
  <defs>
    <clipPath id="clip-path">
      <rect id="Rectangle_7" data-name="Rectangle 7" width="186.82" height="49.862" fill="none"/>
    </clipPath>
  </defs>
  <g id="Group_1" data-name="Group 1" clip-path="url(#clip-path)">
    <path id="Path_1" data-name="Path 1" d="M21.61,39.89H10.474a1.845,1.845,0,0,0-1.828,1.828v1.828a3.048,3.048,0,0,0,2.493,2.992l.5,1.662a2.264,2.264,0,0,0,1.994,1.662h4.654A1.974,1.974,0,0,0,20.28,48.2l.5-1.662a2.9,2.9,0,0,0,2.493-2.992V41.718A1.546,1.546,0,0,0,21.61,39.89M15.959,0A15.891,15.891,0,0,0,0,16.122a15.309,15.309,0,0,0,4.488,10.97l.831.831V11.468h.5L16.125,23.1l10.3-11.634h.5V27.923c.166-.332.5-.5.665-.665a15.7,15.7,0,0,0,4.488-11.136A16.137,16.137,0,0,0,15.959,0M52.026,31.081H63.162V29.419H55.018a130.648,130.648,0,0,0,8.31-11.634v-.5H52.358v1.662h7.978c-2.327,3.49-5.651,7.978-8.31,11.634ZM67.151,20.942H65.322V31.081h1.828Zm-.5-1.163,2.826-2.493H67.317l-2.493,2.493Zm10.637,1.33a11.517,11.517,0,0,0-3.324-.5c-2.659,0-4.155.665-4.155,3.324,0,1.994,1.33,2.659,3.657,2.826,1.828.166,2.327.5,2.327,1.5,0,1.33-.831,1.5-2.161,1.5a9,9,0,0,1-3.158-.5l-.5,1.662a13.844,13.844,0,0,0,3.657.5c2.659,0,4.155-.831,4.155-3.324,0-1.994-1.163-2.659-3.657-2.992-1.662-.166-2.327-.5-2.327-1.33,0-1.33.665-1.5,2.161-1.5a8.693,8.693,0,0,1,2.992.5Zm4.654-4.488H80.115v14.46h1.828Zm6.981,14.46A40.961,40.961,0,0,0,84.436,25.6a36.267,36.267,0,0,0,4.155-4.654H86.264a38.707,38.707,0,0,1-4.321,4.82c.665.166,2.161,1.994,4.654,5.319ZM98.4,24.6c0-2.992-1.33-3.989-4.321-3.989a17.588,17.588,0,0,0-3.657.5l.332,1.662a8.693,8.693,0,0,1,2.992-.5c2.161,0,2.826.5,2.826,2.659A14.547,14.547,0,0,0,93.91,24.6c-2.327,0-3.989.5-3.989,3.324,0,2.659,1.163,3.324,4.155,3.324a12.485,12.485,0,0,0,4.321-.831Zm-1.828,4.82a9.81,9.81,0,0,1-2.327.332c-1.828,0-2.327-.332-2.327-1.994,0-1.5.5-1.828,2.327-1.828a10.221,10.221,0,0,1,2.327.166Zm5.651-12.466c-.831,0-1.163.166-1.163,1,0,1,.332,1.163,1.163,1.163s1.163-.166,1.163-1.163-.332-1-1.163-1m1,3.989h-1.828V31.413c0,1.662-.665,1.994-1.828,1.994V35.07c2.327,0,3.657-.665,3.657-3.657V20.942m15.956,5.817a99.066,99.066,0,0,0-4.155-9.64h-2.826V31.081h1.994v-11.3c1.5,3.158,2.992,6.814,4.155,9.972h1.33c1.33-3.158,2.826-6.648,4.321-9.972v11.3h1.994V17.119h-2.659c-1.5,3.158-2.992,6.482-4.155,9.64m17.784,2.493a9.219,9.219,0,0,1-2.826.5c-1.994,0-2.992-.5-2.992-3.324h6.814c.166-4.654-1.163-5.651-4.321-5.651-2.992,0-4.654,1.33-4.654,5.319,0,4.155,1.828,5.319,4.82,5.319a12.653,12.653,0,0,0,3.49-.5ZM133.8,22.272c1.662,0,2.161.5,2.327,2.659H131.14c.166-2.161.831-2.659,2.659-2.659m8.477.332a8.421,8.421,0,0,1,2.161-.332c1.994,0,2.493.5,2.493,3.158v5.485h1.828V25.263c0-3.657-1.163-4.654-3.989-4.654a12.69,12.69,0,0,0-4.488.831v9.64h1.828Zm15.291,0V20.942h-3.49V18.283l-1.828.831v1.994h-1.662V22.77h1.662v4.986c0,2.992,1,3.657,3.324,3.657a6.072,6.072,0,0,0,2.493-.5l-.332-1.5a5.975,5.975,0,0,1-1.828.332c-1.33,0-1.662-.665-1.662-2.161V22.6Zm6.482,8.809c3.158,0,4.654-1.163,4.654-5.319s-1.5-5.319-4.654-5.319-4.654,1.163-4.654,5.319c0,3.989,1.5,5.319,4.654,5.319m0-9.141c1.994,0,2.659.5,2.659,3.657,0,2.992-.665,3.823-2.659,3.823s-2.659-.665-2.659-3.823.665-3.657,2.659-3.657m7.313,8.809h1.828V23.768c0-.831,1.163-1.163,2.493-1.163a2.464,2.464,0,0,1,1.163.166V20.942h-1a3.076,3.076,0,0,0-2.659,1v-.665h-1.828ZM186.82,24.6c0-2.992-1.33-3.989-4.321-3.989a17.588,17.588,0,0,0-3.657.5l.332,1.662a8.693,8.693,0,0,1,2.992-.5c2.161,0,2.826.5,2.826,2.659a14.547,14.547,0,0,0-2.659-.332c-2.327,0-3.989.5-3.989,3.324,0,2.659,1.163,3.324,4.155,3.324a12.485,12.485,0,0,0,4.321-.831Zm-1.828,4.82a9.81,9.81,0,0,1-2.327.332c-1.828,0-2.327-.332-2.327-1.994,0-1.5.5-1.828,2.327-1.828a10.221,10.221,0,0,1,2.327.166ZM23.6,18.781l-7.646,8.477L8.313,18.781V35.4A2.647,2.647,0,0,0,10.807,37.4h9.972a2.7,2.7,0,0,0,2.659-2.161Z" transform="translate(0)" fill="#209edb"/>
  </g>
</svg>
